<svg xmlns="http://www.w3.org/2000/svg" shape-rendering="geometricPrecision" text-rendering="geometricPrecision" image-rendering="optimizeQuality" fill-rule="evenodd" clip-rule="evenodd" viewBox="0 0 512 414.891"><path fill-rule="nonzero" d="M80.052 0h351.89c21.902 0 41.86 9.115 56.363 23.619C502.912 38.225 512 58.373 512 80.226v254.439c0 21.82-9.169 41.897-23.76 56.482-14.574 14.58-34.591 23.744-56.298 23.744H80.052c-21.744 0-41.821-9.077-56.423-23.678C9.115 376.703 0 356.692 0 334.665V80.226c0-22.065 9.028-42.131 23.57-56.672C38.09 9.028 58.096 0 80.052 0zm31.273 274.869V131.31h38.98v56.086h51.583V131.31h38.981v143.559h-38.981v-56.087h-51.583v56.087h-38.98zm205.522-53.262h30.268l10.951 13.721 18.491 21.017 24.113 29.181h-34.477l-17.106-19.903-11.511-16.546-20.729-27.47zm83.562-18.518c0 15.987-3.129 29.442-9.343 40.431-6.22 10.951-14.607 19.24-25.167 24.868-10.56 5.628-22.337 8.452-35.33 8.452-13.064 0-24.873-2.862-35.433-8.517-10.528-5.693-18.882-14.015-25.064-24.972-6.22-10.95-9.311-24.373-9.311-40.262 0-15.986 3.091-29.442 9.311-40.398 6.182-10.957 14.536-19.246 25.064-24.901 10.56-5.628 22.369-8.425 35.433-8.425 12.993 0 24.77 2.797 35.33 8.425 10.56 5.655 18.947 13.944 25.167 24.901 6.214 10.956 9.343 24.412 9.343 40.398zm-40.105 0c0-8.588-1.152-15.856-3.422-21.745-2.233-5.921-5.59-10.397-10.001-13.488-4.405-3.058-9.864-4.573-16.312-4.573s-11.88 1.515-16.286 4.573c-4.41 3.091-7.762 7.567-10.032 13.488-2.271 5.889-3.39 13.157-3.39 21.745 0 8.615 1.119 15.856 3.39 21.777 2.27 5.889 5.622 10.397 10.032 13.455 4.406 3.059 9.838 4.574 16.286 4.574 6.448 0 11.907-1.515 16.312-4.574 4.411-3.058 7.768-7.566 10.001-13.455 2.27-5.921 3.422-13.162 3.422-21.777zm71.638-169.758H80.052c-13.004 0-24.786 5.286-33.288 13.787-8.495 8.496-13.77 20.218-13.77 33.108v254.439c0 12.814 5.335 24.493 13.83 32.983 8.572 8.572 20.398 13.912 33.228 13.912h351.89c12.755 0 24.526-5.394 33.103-13.977 8.572-8.566 13.961-20.278 13.961-32.918V80.226c0-12.716-5.329-24.476-13.896-33.043-8.506-8.507-20.245-13.852-33.168-13.852z"/></svg>