<svg xmlns="http://www.w3.org/2000/svg" shape-rendering="geometricPrecision" text-rendering="geometricPrecision" image-rendering="optimizeQuality" fill-rule="evenodd" clip-rule="evenodd" viewBox="0 0 512 414.89"><path fill-rule="nonzero" d="M80.053 0h351.889c21.902 0 41.859 9.115 56.363 23.619C502.912 38.225 512 58.373 512 80.226v254.438c0 21.821-9.17 41.898-23.76 56.483-14.574 14.58-34.592 23.743-56.298 23.743H80.053c-21.745 0-41.822-9.076-56.423-23.678C9.115 376.703 0 356.691 0 334.664V80.226c0-22.065 9.028-42.131 23.57-56.672C38.09 9.028 58.096 0 80.053 0zm236.354 279.355h-55.233V135.796h54.674c14.77 0 27.535 2.857 38.323 8.583 10.756 5.725 19.083 13.949 24.933 24.672 5.856 10.723 8.822 23.586 8.822 38.525 0 14.965-2.928 27.795-8.784 38.518-5.823 10.729-14.112 18.953-24.808 24.673-10.69 5.725-23.352 8.588-37.927 8.588zm-16.252-33.092h14.867c7.111 0 13.162-1.119 18.192-3.423 5.003-2.303 8.849-6.252 11.483-11.841 2.63-5.628 3.95-13.423 3.95-23.423 0-10.001-1.32-17.796-4.015-23.391-2.7-5.627-6.611-9.571-11.777-11.874-5.165-2.271-11.483-3.423-18.947-3.423h-13.753v77.375zm-95.024-65.598c-.396-4.671-2.14-8.322-5.231-10.924-3.129-2.629-7.833-3.943-14.145-3.943-4.014 0-7.273.494-9.837 1.444-2.537.957-4.444 2.271-5.628 3.884-1.217 1.646-1.842 3.521-1.907 5.623-.097 1.711.228 3.259.956 4.639.723 1.385 1.875 2.634 3.45 3.721 1.613 1.113 3.623 2.102 6.122 2.993 2.466.885 5.394 1.678 8.816 2.368l11.777 2.531c7.958 1.679 14.737 3.917 20.397 6.644 5.655 2.765 10.294 6.024 13.879 9.739 3.585 3.683 6.252 7.861 7.964 12.5 1.711 4.606 2.563 9.674 2.629 15.133-.066 9.441-2.401 17.437-7.105 23.983-4.672 6.546-11.316 11.51-20.001 14.933-8.654 3.389-19.078 5.1-31.218 5.1-12.467 0-23.358-1.841-32.636-5.53-9.273-3.682-16.481-9.375-21.576-17.072-5.134-7.698-7.698-17.53-7.763-29.54h37.009c.26 4.378 1.347 8.094 3.319 11.087 1.939 2.96 4.704 5.231 8.289 6.779 3.585 1.543 7.833 2.331 12.798 2.331 4.144 0 7.632-.522 10.429-1.543 2.831-1.054 4.933-2.466 6.383-4.275 1.445-1.847 2.2-3.917 2.233-6.253-.033-2.205-.755-4.112-2.135-5.79-1.347-1.646-3.618-3.156-6.747-4.476-3.123-1.347-7.366-2.597-12.694-3.749l-14.281-3.09c-12.728-2.765-22.728-7.372-30.034-13.852-7.334-6.448-10.951-15.297-10.919-26.514-.032-9.11 2.401-17.105 7.334-23.95 4.937-6.839 11.777-12.168 20.528-16.019 8.783-3.813 18.816-5.726 30.169-5.726 11.608 0 21.609 1.945 30.099 5.824 8.452 3.851 14.966 9.31 19.572 16.35 4.606 7.04 6.942 15.232 6.975 24.64h-37.27zM431.942 33.331H80.053c-13.005 0-24.787 5.286-33.288 13.787-8.496 8.495-13.771 20.218-13.771 33.108v254.438c0 12.814 5.335 24.494 13.831 32.984 8.571 8.571 20.397 13.911 33.228 13.911h351.889c12.755 0 24.526-5.394 33.103-13.976 8.572-8.567 13.961-20.278 13.961-32.919V80.226c0-12.716-5.33-24.477-13.896-33.043-8.506-8.507-20.245-13.852-33.168-13.852z"/></svg>